<svg width="44" height="44" viewBox="0 0 44 44" fill="none" xmlns="http://www.w3.org/2000/svg">
<circle cx="22" cy="22" r="22" fill="#E3E3E3"/>
<path d="M22 10C15.374 10 10 15.373 10 22C10 27.302 13.438 31.8 18.207 33.387C18.806 33.498 19 33.126 19 32.81V30.576C15.662 31.302 14.967 29.16 14.967 29.16C14.421 27.773 13.634 27.404 13.634 27.404C12.545 26.659 13.717 26.675 13.717 26.675C14.922 26.759 15.556 27.912 15.556 27.912C16.626 29.746 18.363 29.216 19.048 28.909C19.155 28.134 19.466 27.604 19.81 27.305C17.145 27 14.343 25.971 14.343 21.374C14.343 20.063 14.812 18.993 15.579 18.153C15.455 17.85 15.044 16.629 15.696 14.977C15.696 14.977 16.704 14.655 18.997 16.207C19.954 15.941 20.98 15.808 22 15.803C23.02 15.808 24.047 15.941 25.006 16.207C27.297 14.655 28.303 14.977 28.303 14.977C28.956 16.63 28.545 17.851 28.421 18.153C29.191 18.993 29.656 20.064 29.656 21.374C29.656 25.983 26.849 26.998 24.177 27.295C24.607 27.667 25 28.397 25 29.517V32.81C25 33.129 25.192 33.504 25.801 33.386C30.566 31.797 34 27.3 34 22C34 15.373 28.627 10 22 10Z" fill="#353535"/>
</svg>
