<svg width="44" height="44" viewBox="0 0 44 44" fill="none" xmlns="http://www.w3.org/2000/svg">
<circle cx="22" cy="22" r="22" fill="#E3E3E3"/>
<path d="M35 15.309C34.117 15.701 33.168 15.965 32.172 16.084C33.189 15.475 33.97 14.51 34.337 13.36C33.386 13.924 32.332 14.334 31.21 14.555C30.313 13.598 29.032 13 27.616 13C24.437 13 22.101 15.966 22.819 19.045C18.728 18.84 15.1 16.88 12.671 13.901C11.381 16.114 12.002 19.009 14.194 20.475C13.388 20.449 12.628 20.228 11.965 19.859C11.911 22.14 13.546 24.274 15.914 24.749C15.221 24.937 14.462 24.981 13.69 24.833C14.316 26.789 16.134 28.212 18.29 28.252C16.22 29.875 13.612 30.6 11 30.292C13.179 31.689 15.768 32.504 18.548 32.504C27.69 32.504 32.855 24.783 32.543 17.858C33.505 17.163 34.34 16.296 35 15.309V15.309Z" fill="#353535"/>
</svg>
